<svg version="1.1" xmlns="http://www.w3.org/2000/svg" x="0" y="0" width="224.6" height="135.5" viewBox="308.3 229.9 224.6 135.5" xml:space="preserve"><linearGradient id="a" gradientUnits="userSpaceOnUse" x1="200.82" y1="81.075" x2="377.012" y2="245.702" gradientTransform="matrix(.707 0 0 -.707 210.486 420.903)"><stop offset="0" stop-color="#45BFDF"/><stop offset=".026" stop-color="#45BFDF"/><stop offset=".119" stop-color="#4DBDDE"/><stop offset=".237" stop-color="#60B9DB"/><stop offset=".366" stop-color="#78B1D5"/><stop offset=".505" stop-color="#91A3CB"/><stop offset=".65" stop-color="#A88ABA"/><stop offset=".8" stop-color="#BD63A1"/><stop offset=".947" stop-color="#CE1E84"/></linearGradient><path fill="url(#a)" d="M430 291.4c.6.6 1.4 1.2 2.3 1.6.8.4 1.8.6 2.8.6s2-.2 2.9-.6c.9-.4 1.7-.9 2.3-1.6s1.2-1.4 1.6-2.3c.4-.9.6-1.8.6-2.8 0-1-.2-1.9-.6-2.8-.4-.8-.9-1.6-1.6-2.3-.7-.6-1.4-1.1-2.3-1.5-.9-.4-1.8-.6-2.9-.6-2.1 0-3.8.7-5.2 2.1-1.3 1.3-2.1 3-2.1 5.1 0 1 .2 1.9.6 2.8.4.9 1 1.6 1.6 2.3z"/><linearGradient id="b" gradientUnits="userSpaceOnUse" x1="241.832" y1="37.182" x2="418.023" y2="201.809" gradientTransform="matrix(.707 0 0 -.707 210.486 420.903)"><stop offset="0" stop-color="#45BFDF"/><stop offset=".026" stop-color="#45BFDF"/><stop offset=".119" stop-color="#4DBDDE"/><stop offset=".237" stop-color="#60B9DB"/><stop offset=".366" stop-color="#78B1D5"/><stop offset=".505" stop-color="#91A3CB"/><stop offset=".65" stop-color="#A88ABA"/><stop offset=".8" stop-color="#BD63A1"/><stop offset=".947" stop-color="#CE1E84"/></linearGradient><path fill="url(#b)" d="M464.2 312.2c1.6 1.6 3.4 2.9 5.5 3.9 2.2.9 4.5 1.4 7.1 1.4 1.1 0 2.3-.1 3.4-.5s2.1-.8 3.1-1.3 1.8-1.1 2.5-1.8 1.3-1.5 1.8-2.3v5h11.3v-51.5h-11.3v21.1c-.4-.8-1.1-1.6-1.8-2.3-.7-.7-1.6-1.3-2.5-1.9-.9-.5-2-.9-3.1-1.3s-2.3-.5-3.4-.5c-2.6 0-4.9.4-7.1 1.4-2.2.9-4 2.3-5.5 3.9s-2.7 3.6-3.5 5.9c-.8 2.3-1.3 4.7-1.3 7.4s.4 5.2 1.3 7.4c.8 2.4 1.9 4.4 3.5 6zm7-16.8c.4-1.1 1.1-2.1 1.8-2.9.8-.8 1.6-1.5 2.7-2s2.2-.7 3.5-.7 2.4.2 3.5.7 2 1.1 2.7 2c.8.8 1.3 1.8 1.8 2.9.4 1.1.6 2.3.6 3.5 0 1.3-.2 2.4-.6 3.5s-1.1 2.1-1.8 2.9c-.8.8-1.6 1.5-2.7 2s-2.2.7-3.5.7-2.4-.2-3.5-.7c-1.1-.5-2-1.2-2.7-2-.8-.8-1.3-1.8-1.8-2.9s-.6-2.3-.6-3.5c-.1-1.2.2-2.4.6-3.5z"/><linearGradient id="c" gradientUnits="userSpaceOnUse" x1="189.144" y1="93.571" x2="365.335" y2="258.198" gradientTransform="matrix(.707 0 0 -.707 210.486 420.903)"><stop offset="0" stop-color="#45BFDF"/><stop offset=".026" stop-color="#45BFDF"/><stop offset=".119" stop-color="#4DBDDE"/><stop offset=".237" stop-color="#60B9DB"/><stop offset=".366" stop-color="#78B1D5"/><stop offset=".505" stop-color="#91A3CB"/><stop offset=".65" stop-color="#A88ABA"/><stop offset=".8" stop-color="#BD63A1"/><stop offset=".947" stop-color="#CE1E84"/></linearGradient><path fill="url(#c)" d="M397.8 281.6h11.3v35.6h-11.3z"/><linearGradient id="d" gradientUnits="userSpaceOnUse" x1="227.133" y1="52.914" x2="403.324" y2="217.541" gradientTransform="matrix(.707 0 0 -.707 210.486 420.903)"><stop offset="0" stop-color="#45BFDF"/><stop offset=".026" stop-color="#45BFDF"/><stop offset=".119" stop-color="#4DBDDE"/><stop offset=".237" stop-color="#60B9DB"/><stop offset=".366" stop-color="#78B1D5"/><stop offset=".505" stop-color="#91A3CB"/><stop offset=".65" stop-color="#A88ABA"/><stop offset=".8" stop-color="#BD63A1"/><stop offset=".947" stop-color="#CE1E84"/></linearGradient><path fill="url(#d)" d="M429.5 305.8h11.3v35.6h-11.3z"/><linearGradient id="e" gradientUnits="userSpaceOnUse" x1="162.781" y1="121.785" x2="338.973" y2="286.412" gradientTransform="matrix(.707 0 0 -.707 210.486 420.903)"><stop offset="0" stop-color="#45BFDF"/><stop offset=".026" stop-color="#45BFDF"/><stop offset=".119" stop-color="#4DBDDE"/><stop offset=".237" stop-color="#60B9DB"/><stop offset=".366" stop-color="#78B1D5"/><stop offset=".505" stop-color="#91A3CB"/><stop offset=".65" stop-color="#A88ABA"/><stop offset=".8" stop-color="#BD63A1"/><stop offset=".947" stop-color="#CE1E84"/></linearGradient><path fill="url(#e)" d="M398.3 267.1c.6.6 1.4 1.2 2.3 1.6.8.4 1.8.6 2.8.6s2-.2 2.9-.6c.9-.4 1.7-.9 2.3-1.6s1.2-1.4 1.6-2.3c.4-.8.5-1.8.6-2.8 0-1-.2-1.9-.6-2.8-.4-.8-.9-1.6-1.6-2.3-.7-.6-1.4-1.1-2.3-1.5-.9-.4-1.8-.6-2.9-.6-2.1 0-3.8.7-5.2 2.1s-2.1 3-2.1 5.1c0 1 .2 1.9.6 2.8.4.9.9 1.7 1.6 2.3z"/><linearGradient id="f" gradientUnits="userSpaceOnUse" x1="159.821" y1="124.953" x2="336.013" y2="289.58" gradientTransform="matrix(.707 0 0 -.707 210.486 420.903)"><stop offset="0" stop-color="#45BFDF"/><stop offset=".026" stop-color="#45BFDF"/><stop offset=".119" stop-color="#4DBDDE"/><stop offset=".237" stop-color="#60B9DB"/><stop offset=".366" stop-color="#78B1D5"/><stop offset=".505" stop-color="#91A3CB"/><stop offset=".65" stop-color="#A88ABA"/><stop offset=".8" stop-color="#BD63A1"/><stop offset=".947" stop-color="#CE1E84"/></linearGradient><path fill="url(#f)" d="M345.7 311.5c1.7 1.7 3.8 3 6.2 4 2.4 1 5.2 1.5 8.2 1.5s5.9-.5 8.3-1.5c2.5-1 4.5-2.3 6.2-4s3-3.7 3.9-5.9 1.4-4.7 1.3-7.2c0-2.5-.4-4.9-1.3-7.2s-2.2-4.2-3.9-5.9c-1.7-1.7-3.8-3-6.2-4-2.4-1-5.2-1.5-8.3-1.5-3 0-5.8.5-8.2 1.5-2.5 1-4.5 2.3-6.2 4s-3 3.7-3.9 5.9-1.3 4.7-1.3 7.2.4 4.9 1.3 7.2 2.2 4.2 3.9 5.9zm6.6-16.7c.4-1.1 1-2.1 1.7-2.9.8-.8 1.6-1.5 2.7-2s2.2-.7 3.5-.7c1.3 0 2.5.2 3.5.7 1.1.5 2 1.2 2.7 2 .7.8 1.3 1.8 1.8 2.9.4 1.1.6 2.3.6 3.5 0 1.3-.2 2.5-.6 3.5-.4 1.1-1.1 2.1-1.8 2.9-.7.8-1.6 1.5-2.7 2s-2.3.7-3.5.7-2.4-.2-3.5-.7-2-1.1-2.7-2c-.7-.8-1.3-1.8-1.7-2.9-.4-1.1-.6-2.3-.6-3.5s.1-2.4.6-3.5z"/><linearGradient id="g" gradientUnits="userSpaceOnUse" x1="199.273" y1="82.731" x2="375.464" y2="247.357" gradientTransform="matrix(.707 0 0 -.707 210.486 420.903)"><stop offset="0" stop-color="#45BFDF"/><stop offset=".026" stop-color="#45BFDF"/><stop offset=".119" stop-color="#4DBDDE"/><stop offset=".237" stop-color="#60B9DB"/><stop offset=".366" stop-color="#78B1D5"/><stop offset=".505" stop-color="#91A3CB"/><stop offset=".65" stop-color="#A88ABA"/><stop offset=".8" stop-color="#BD63A1"/><stop offset=".947" stop-color="#CE1E84"/></linearGradient><path fill="url(#g)" d="M308.3 229.9v135.5h224.6V229.9H308.3zm216.4 127.9H316.5V237.6h208.2v120.2z"/></svg>