<svg version="1.1" id="Layer_1" xmlns="http://www.w3.org/2000/svg" x="0" y="0" width="54.4" height="43.3" viewBox="0 0 54.4 43.3" xml:space="preserve"><style type="text/css">.st0{fill:#E84237;}</style><path class="st0" d="M21 15c-1.3 1-1.9 2.1-1.9 3.4 0 .7.2 1.2.5 1.6.4.4 1 1 2 1.6 2.6 1.5 3.9 3.9 3.9 7 0 2.4-.8 4.4-2.5 6.1-1.7 1.7-3.8 2.5-6.2 2.5-2.9 0-5.2-1.1-7.1-3.3-1.9-2.2-2.8-5.1-2.8-8.7 0-2.2.3-4.3 1-6.2.7-1.9 1.6-3.7 2.9-5.3 1.3-1.6 2.7-3 4.4-4.1 1.7-1.1 3.6-2 5.7-2.5l5.3 5.6C24 13.2 22.3 14 21 15zm22.6 0c-1.3 1-1.9 2.1-1.9 3.4 0 .7.2 1.2.5 1.6.3.4 1 .9 2.1 1.6 2.6 1.6 3.9 3.9 3.9 7 0 2.4-.9 4.4-2.5 6.1-1.7 1.7-3.8 2.5-6.2 2.5-3 0-5.4-1.1-7.2-3.3s-2.7-5.1-2.7-8.7c0-2.2.3-4.3 1-6.2.7-2 1.6-3.7 2.8-5.3 1.2-1.6 2.7-2.9 4.4-4 1.7-1.1 3.6-2 5.7-2.5l5.3 5.6c-2.2.4-3.9 1.2-5.2 2.2z"/></svg>