<svg width="43" height="31" viewBox="0 0 43 31" version="1.1" xmlns="http://www.w3.org/2000/svg"><path d="M42.894 19.36c-.663-4.633-4.437-7.935-8.722-8.148 1.07-4.154 3.673-5.805 6.835-6.764.306-.106.255-.426.255-.426L40.752.72s-.05-.266-.46-.213c-10.915 1.278-18.31 9.96-16.934 20.504 1.276 7.297 6.733 10.12 11.783 9.374 5.05-.852 8.52-5.752 7.754-11.024zm-31.937-8.148c1.02-4.154 3.724-5.805 6.835-6.764.306-.106.255-.426.255-.426L17.587.72s-.05-.266-.458-.213C6.212 1.732-1.133 10.413.143 20.957c1.326 7.35 6.835 10.173 11.833 9.427 5.05-.852 8.52-5.752 7.702-11.024-.664-4.687-4.387-7.99-8.723-8.148z" fill="#008FC7" stroke="none" stroke-width="1" fill-rule="evenodd"/></svg>