<svg version="1.1" xmlns="http://www.w3.org/2000/svg" x="0" y="0" width="292" height="52" viewBox="0 0 292 52" xml:space="preserve"><title>Social Media Buttons</title><path d="M278 33V18l-8.7 8.5L278 33zm-24 0l8.7-6.5L254 18v15zm9.9-5.4L254 34h24l-9.9-6.4-2.1 2-2.1-2zm-9.2-9.6l11.3 9.1 11.3-9.1h-22.6zM197.2 25.1v5.3H195v-5.3h-5.2v-2.2h5.2v-5.2h2.2v5.2h4c.3.7.5 1.4.8 2.2h-4.8zm-26.5 15.2c2.9-1.8 6.8-2 9-2.2-.7-.8-1.4-1.7-1.4-3.2 0-.8.2-1.3.5-1.8-.5.1-1 .1-1.5.1-5 0-7.8-3.7-7.8-7.4 0-2.2 1-4.5 3-6.3 2.7-2.2 5.9-2.6 8.4-2.6h9.7l-3 1.7h-2.9c1.1.9 3.3 2.8 3.3 6.3s-2 5.1-3.9 6.6c-.6.6-1.3 1.3-1.3 2.3 0 1 .7 1.6 1.2 2l1.7 1.3c2.1 1.7 3.9 3.3 3.9 6.5 0 2.1-1 4.3-2.9 5.9-1 .2-2.1.3-3.2.3 2-.9 3-2.4 3-4.3 0-2.4-1.5-3.7-5.1-6.2h-1.1c-.4 0-2.9.1-4.9.7-1 .4-4 1.5-4 4.8 0 .4 0 .7.1 1.1-4.9-3.7-2.8-3.1-3.4-3.1.5-.8 1.3-1.8 2.6-2.5zm7.2-21.8c-1.2 0-2.5.6-3.3 1.5-.8 1-1 2.2-1 3.5 0 3.1 1.8 8.3 5.9 8.3 1.2 0 2.4-.6 3.2-1.3 1.1-1.1 1.2-2.6 1.2-3.4-.1-3.3-2.1-8.6-6-8.6zM105.7 21.6v.8l-.8-.1c-2.9-.4-5.4-1.7-7.6-3.9l-1-1.1-.3.8c-.6 1.8-.2 3.7 1 5 .6.7.5.8-.6.4-.4-.1-.7-.2-.7-.2-.1.1.3 1.6.6 2.2.4.8 1.3 1.7 2.2 2.1l.8.4h-.9c-.9 0-.9 0-.8.4.3 1.1 1.6 2.2 3 2.8l1 .4-.9.5c-1.3.8-2.8 1.2-4.3 1.2-.7 0-1.3.1-1.3.1 0 .2 1.9 1.1 3.1 1.5 3.4 1.1 7.4.6 10.4-1.2 2.1-1.3 4.3-4 5.3-6.5.5-1.4 1.1-3.8 1.1-5 0-.8 0-.9.9-1.8.5-.5 1-1.1 1.1-1.3.2-.3.1-.3-.7 0-1.4.5-1.5.4-.9-.3.5-.5 1.1-1.5 1.1-1.8 0-.1-.2 0-.5.2s-.9.4-1.4.6l-.9.3-.8-.6c-.4-.3-1-.6-1.4-.7-.8-.2-2.1-.2-2.8.1-1.9.6-3.2 2.5-3 4.7 0 0-.2-2.2 0 0zM27.8 37V26h3.3l.4-3.8h-3.7v-1.9c0-1 .1-1.5 1.6-1.5h2V15h-3.3c-3.9 0-5.3 1.8-5.3 4.9v2.3h-2.4V26h2.4v11h5z"/></svg>