<?xml version="1.0" encoding="utf-8"?>
<!-- Generator: Adobe Illustrator 18.0.0, SVG Export Plug-In . SVG Version: 6.00 Build 0)  -->
<!DOCTYPE svg PUBLIC "-//W3C//DTD SVG 1.1//EN" "http://www.w3.org/Graphics/SVG/1.1/DTD/svg11.dtd">
<svg version="1.1" id="Layer_1" xmlns="http://www.w3.org/2000/svg" xmlns:xlink="http://www.w3.org/1999/xlink" x="0px" y="0px"
	 width="224.6px" height="135.5px" viewBox="308.3 229.9 224.6 135.5" enable-background="new 308.3 229.9 224.6 135.5"
	 xml:space="preserve">
<linearGradient id="SVGID_1_" gradientUnits="userSpaceOnUse" x1="200.8201" y1="81.0747" x2="377.0117" y2="245.7016" gradientTransform="matrix(0.7071 0 0 -0.7071 210.4864 420.9031)">
	<stop  offset="0" style="stop-color:#45BFDF"/>
	<stop  offset="2.588517e-02" style="stop-color:#45BFDF"/>
	<stop  offset="0.1195" style="stop-color:#4DBDDE"/>
	<stop  offset="0.2366" style="stop-color:#60B9DB"/>
	<stop  offset="0.3661" style="stop-color:#78B1D5"/>
	<stop  offset="0.5046" style="stop-color:#91A3CB"/>
	<stop  offset="0.6504" style="stop-color:#A88ABA"/>
	<stop  offset="0.7997" style="stop-color:#BD63A1"/>
	<stop  offset="0.9465" style="stop-color:#CE1E84"/>
</linearGradient>
<path fill="url(#SVGID_1_)" d="M430,291.4c0.6,0.6,1.4,1.2,2.3,1.6c0.8,0.4,1.8,0.6,2.8,0.6s2-0.2,2.9-0.6c0.9-0.4,1.7-0.9,2.3-1.6
	s1.2-1.4,1.6-2.3c0.4-0.9,0.6-1.8,0.6-2.8c0-1-0.2-1.9-0.6-2.8c-0.4-0.8-0.9-1.6-1.6-2.3c-0.7-0.6-1.4-1.1-2.3-1.5
	c-0.9-0.4-1.8-0.6-2.9-0.6c-2.1,0-3.8,0.7-5.2,2.1c-1.3,1.3-2.1,3-2.1,5.1c0,1,0.2,1.9,0.6,2.8C428.8,290,429.4,290.7,430,291.4z"/>
<linearGradient id="SVGID_2_" gradientUnits="userSpaceOnUse" x1="241.8316" y1="37.1822" x2="418.0232" y2="201.8091" gradientTransform="matrix(0.7071 0 0 -0.7071 210.4864 420.9031)">
	<stop  offset="0" style="stop-color:#45BFDF"/>
	<stop  offset="2.588517e-02" style="stop-color:#45BFDF"/>
	<stop  offset="0.1195" style="stop-color:#4DBDDE"/>
	<stop  offset="0.2366" style="stop-color:#60B9DB"/>
	<stop  offset="0.3661" style="stop-color:#78B1D5"/>
	<stop  offset="0.5046" style="stop-color:#91A3CB"/>
	<stop  offset="0.6504" style="stop-color:#A88ABA"/>
	<stop  offset="0.7997" style="stop-color:#BD63A1"/>
	<stop  offset="0.9465" style="stop-color:#CE1E84"/>
</linearGradient>
<path fill="url(#SVGID_2_)" d="M464.2,312.2c1.6,1.6,3.4,2.9,5.5,3.9c2.2,0.9,4.5,1.4,7.1,1.4c1.1,0,2.3-0.1,3.4-0.5
	c1.1-0.4,2.1-0.8,3.1-1.3c1-0.5,1.8-1.1,2.5-1.8c0.7-0.7,1.3-1.5,1.8-2.3v5h11.3v-51.5h-11.3v21.1c-0.4-0.8-1.1-1.6-1.8-2.3
	c-0.7-0.7-1.6-1.3-2.5-1.9c-0.9-0.5-2-0.9-3.1-1.3c-1.1-0.4-2.3-0.5-3.4-0.5c-2.6,0-4.9,0.4-7.1,1.4c-2.2,0.9-4,2.3-5.5,3.9
	c-1.5,1.6-2.7,3.6-3.5,5.9c-0.8,2.3-1.3,4.7-1.3,7.4c0,2.7,0.4,5.2,1.3,7.4C461.5,308.6,462.6,310.6,464.2,312.2z M471.2,295.4
	c0.4-1.1,1.1-2.1,1.8-2.9c0.8-0.8,1.6-1.5,2.7-2c1.1-0.5,2.2-0.7,3.5-0.7s2.4,0.2,3.5,0.7s2,1.1,2.7,2c0.8,0.8,1.3,1.8,1.8,2.9
	c0.4,1.1,0.6,2.3,0.6,3.5c0,1.3-0.2,2.4-0.6,3.5s-1.1,2.1-1.8,2.9c-0.8,0.8-1.6,1.5-2.7,2c-1.1,0.5-2.2,0.7-3.5,0.7
	s-2.4-0.2-3.5-0.7c-1.1-0.5-2-1.2-2.7-2c-0.8-0.8-1.3-1.8-1.8-2.9s-0.6-2.3-0.6-3.5C470.5,297.7,470.8,296.5,471.2,295.4z"/>
<linearGradient id="SVGID_3_" gradientUnits="userSpaceOnUse" x1="189.1438" y1="93.5713" x2="365.3353" y2="258.1982" gradientTransform="matrix(0.7071 0 0 -0.7071 210.4864 420.9031)">
	<stop  offset="0" style="stop-color:#45BFDF"/>
	<stop  offset="2.588517e-02" style="stop-color:#45BFDF"/>
	<stop  offset="0.1195" style="stop-color:#4DBDDE"/>
	<stop  offset="0.2366" style="stop-color:#60B9DB"/>
	<stop  offset="0.3661" style="stop-color:#78B1D5"/>
	<stop  offset="0.5046" style="stop-color:#91A3CB"/>
	<stop  offset="0.6504" style="stop-color:#A88ABA"/>
	<stop  offset="0.7997" style="stop-color:#BD63A1"/>
	<stop  offset="0.9465" style="stop-color:#CE1E84"/>
</linearGradient>
<rect x="397.8" y="281.6" fill="url(#SVGID_3_)" width="11.3" height="35.6"/>
<linearGradient id="SVGID_4_" gradientUnits="userSpaceOnUse" x1="227.1326" y1="52.9138" x2="403.3242" y2="217.5407" gradientTransform="matrix(0.7071 0 0 -0.7071 210.4864 420.9031)">
	<stop  offset="0" style="stop-color:#45BFDF"/>
	<stop  offset="2.588517e-02" style="stop-color:#45BFDF"/>
	<stop  offset="0.1195" style="stop-color:#4DBDDE"/>
	<stop  offset="0.2366" style="stop-color:#60B9DB"/>
	<stop  offset="0.3661" style="stop-color:#78B1D5"/>
	<stop  offset="0.5046" style="stop-color:#91A3CB"/>
	<stop  offset="0.6504" style="stop-color:#A88ABA"/>
	<stop  offset="0.7997" style="stop-color:#BD63A1"/>
	<stop  offset="0.9465" style="stop-color:#CE1E84"/>
</linearGradient>
<rect x="429.5" y="305.8" fill="url(#SVGID_4_)" width="11.3" height="35.6"/>
<linearGradient id="SVGID_5_" gradientUnits="userSpaceOnUse" x1="162.7814" y1="121.7855" x2="338.973" y2="286.4124" gradientTransform="matrix(0.7071 0 0 -0.7071 210.4864 420.9031)">
	<stop  offset="0" style="stop-color:#45BFDF"/>
	<stop  offset="2.588517e-02" style="stop-color:#45BFDF"/>
	<stop  offset="0.1195" style="stop-color:#4DBDDE"/>
	<stop  offset="0.2366" style="stop-color:#60B9DB"/>
	<stop  offset="0.3661" style="stop-color:#78B1D5"/>
	<stop  offset="0.5046" style="stop-color:#91A3CB"/>
	<stop  offset="0.6504" style="stop-color:#A88ABA"/>
	<stop  offset="0.7997" style="stop-color:#BD63A1"/>
	<stop  offset="0.9465" style="stop-color:#CE1E84"/>
</linearGradient>
<path fill="url(#SVGID_5_)" d="M398.3,267.1c0.6,0.6,1.4,1.2,2.3,1.6c0.8,0.4,1.8,0.6,2.8,0.6s2-0.2,2.9-0.6
	c0.9-0.4,1.7-0.9,2.3-1.6s1.2-1.4,1.6-2.3c0.4-0.8,0.5-1.8,0.6-2.8c0-1-0.2-1.9-0.6-2.8c-0.4-0.8-0.9-1.6-1.6-2.3
	c-0.7-0.6-1.4-1.1-2.3-1.5c-0.9-0.4-1.8-0.6-2.9-0.6c-2.1,0-3.8,0.7-5.2,2.1s-2.1,3-2.1,5.1c0,1,0.2,1.9,0.6,2.8
	C397.1,265.7,397.6,266.5,398.3,267.1z"/>
<linearGradient id="SVGID_6_" gradientUnits="userSpaceOnUse" x1="159.8215" y1="124.9534" x2="336.0131" y2="289.5803" gradientTransform="matrix(0.7071 0 0 -0.7071 210.4864 420.9031)">
	<stop  offset="0" style="stop-color:#45BFDF"/>
	<stop  offset="2.588517e-02" style="stop-color:#45BFDF"/>
	<stop  offset="0.1195" style="stop-color:#4DBDDE"/>
	<stop  offset="0.2366" style="stop-color:#60B9DB"/>
	<stop  offset="0.3661" style="stop-color:#78B1D5"/>
	<stop  offset="0.5046" style="stop-color:#91A3CB"/>
	<stop  offset="0.6504" style="stop-color:#A88ABA"/>
	<stop  offset="0.7997" style="stop-color:#BD63A1"/>
	<stop  offset="0.9465" style="stop-color:#CE1E84"/>
</linearGradient>
<path fill="url(#SVGID_6_)" d="M345.7,311.5c1.7,1.7,3.8,3,6.2,4c2.4,1,5.2,1.5,8.2,1.5s5.9-0.5,8.3-1.5c2.5-1,4.5-2.3,6.2-4
	s3-3.7,3.9-5.9s1.4-4.7,1.3-7.2c0-2.5-0.4-4.9-1.3-7.2c-0.9-2.3-2.2-4.2-3.9-5.9c-1.7-1.7-3.8-3-6.2-4c-2.4-1-5.2-1.5-8.3-1.5
	c-3,0-5.8,0.5-8.2,1.5c-2.5,1-4.5,2.3-6.2,4s-3,3.7-3.9,5.9s-1.3,4.7-1.3,7.2c0,2.5,0.4,4.9,1.3,7.2S344,309.8,345.7,311.5z
	 M352.3,294.8c0.4-1.1,1-2.1,1.7-2.9c0.8-0.8,1.6-1.5,2.7-2c1.1-0.5,2.2-0.7,3.5-0.7c1.3,0,2.5,0.2,3.5,0.7c1.1,0.5,2,1.2,2.7,2
	c0.7,0.8,1.3,1.8,1.8,2.9c0.4,1.1,0.6,2.3,0.6,3.5c0,1.3-0.2,2.5-0.6,3.5c-0.4,1.1-1.1,2.1-1.8,2.9c-0.7,0.8-1.6,1.5-2.7,2
	c-1.1,0.5-2.3,0.7-3.5,0.7s-2.4-0.2-3.5-0.7s-2-1.1-2.7-2c-0.7-0.8-1.3-1.8-1.7-2.9c-0.4-1.1-0.6-2.3-0.6-3.5
	S351.8,295.9,352.3,294.8z"/>
<linearGradient id="SVGID_7_" gradientUnits="userSpaceOnUse" x1="199.2729" y1="82.7306" x2="375.4645" y2="247.3575" gradientTransform="matrix(0.7071 0 0 -0.7071 210.4864 420.9031)">
	<stop  offset="0" style="stop-color:#45BFDF"/>
	<stop  offset="2.588517e-02" style="stop-color:#45BFDF"/>
	<stop  offset="0.1195" style="stop-color:#4DBDDE"/>
	<stop  offset="0.2366" style="stop-color:#60B9DB"/>
	<stop  offset="0.3661" style="stop-color:#78B1D5"/>
	<stop  offset="0.5046" style="stop-color:#91A3CB"/>
	<stop  offset="0.6504" style="stop-color:#A88ABA"/>
	<stop  offset="0.7997" style="stop-color:#BD63A1"/>
	<stop  offset="0.9465" style="stop-color:#CE1E84"/>
</linearGradient>
<path fill="url(#SVGID_7_)" d="M308.3,229.9v135.5h224.6V229.9H308.3z M524.7,357.8H316.5V237.6h208.2V357.8z"/>
</svg>
