<?xml version="1.0" encoding="UTF-8" standalone="no"?>
<svg width="43px" height="31px" viewBox="0 0 43 31" version="1.1" xmlns="http://www.w3.org/2000/svg" xmlns:xlink="http://www.w3.org/1999/xlink">
    <defs></defs>
    <g id="Welcome" stroke="none" stroke-width="1" fill="none" fill-rule="evenodd">
        <g id="Article-Desktop" transform="translate(-183.000000, -2255.000000)" fill="#008FC7">
            <g id="TEXT-PARARAPH-#2" transform="translate(180.000000, 1946.000000)">
                <path d="M45.8942499,328.359986 C45.2311524,323.726636 41.4565976,320.424708 37.1719677,320.21168 C38.2431252,316.057641 40.8445076,314.406677 44.0069725,313.448053 C44.3130174,313.341539 44.2620099,313.021998 44.2620099,313.021998 L43.751935,309.72007 C43.751935,309.72007 43.7009275,309.453785 43.2928675,309.507042 C32.3772629,310.785208 24.9811757,319.466083 26.3583782,330.01095 C27.6335656,337.307146 33.0913679,340.129762 38.1411102,339.384165 C43.1908525,338.532055 46.6593624,333.63242 45.8942499,328.359986 L45.8942499,328.359986 L45.8942499,328.359986 Z M13.9571802,320.21168 C14.9773302,316.057641 17.6807276,314.406677 20.792185,313.448053 C21.0982299,313.341539 21.0472224,313.021998 21.0472224,313.021998 L20.588155,309.72007 C20.588155,309.72007 20.5371475,309.453785 20.1290875,309.507042 C9.21348292,310.731951 1.86840321,319.412826 3.14359066,329.957693 C4.46978561,337.307146 9.97859539,340.129762 14.9773302,339.384165 C20.0270725,338.532055 23.4955823,333.63242 22.6794624,328.359986 C22.0163649,323.673379 18.2928176,320.371451 13.9571802,320.21168 L13.9571802,320.21168 Z" id="quote"></path>
            </g>
        </g>
    </g>
</svg>