<?xml version="1.0" encoding="utf-8"?>
<!-- Generator: Adobe Illustrator 18.0.0, SVG Export Plug-In . SVG Version: 6.00 Build 0)  -->
<!DOCTYPE svg PUBLIC "-//W3C//DTD SVG 1.1//EN" "http://www.w3.org/Graphics/SVG/1.1/DTD/svg11.dtd">
<svg version="1.1" id="Layer_1" xmlns="http://www.w3.org/2000/svg" xmlns:xlink="http://www.w3.org/1999/xlink" x="0px" y="0px"
	 width="54.4px" height="43.3px" viewBox="0 0 54.4 43.3" style="enable-background:new 0 0 54.4 43.3;" xml:space="preserve">
<style type="text/css">
	.st0{fill:#E84237;}
</style>
<g>
	<path class="st0" d="M21,15c-1.3,1-1.9,2.1-1.9,3.4c0,0.7,0.2,1.2,0.5,1.6c0.4,0.4,1,1,2,1.6c2.6,1.5,3.9,3.9,3.9,7
		c0,2.4-0.8,4.4-2.5,6.1c-1.7,1.7-3.8,2.5-6.2,2.5c-2.9,0-5.2-1.1-7.1-3.3c-1.9-2.2-2.8-5.1-2.8-8.7c0-2.2,0.3-4.3,1-6.2
		c0.7-1.9,1.6-3.7,2.9-5.3c1.3-1.6,2.7-3,4.4-4.1c1.7-1.1,3.6-2,5.7-2.5l5.3,5.6C24,13.2,22.3,14,21,15z M43.6,15
		c-1.3,1-1.9,2.1-1.9,3.4c0,0.7,0.2,1.2,0.5,1.6c0.3,0.4,1,0.9,2.1,1.6c2.6,1.6,3.9,3.9,3.9,7c0,2.4-0.9,4.4-2.5,6.1
		c-1.7,1.7-3.8,2.5-6.2,2.5c-3,0-5.4-1.1-7.2-3.3s-2.7-5.1-2.7-8.7c0-2.2,0.3-4.3,1-6.2c0.7-2,1.6-3.7,2.8-5.3
		c1.2-1.6,2.7-2.9,4.4-4c1.7-1.1,3.6-2,5.7-2.5l5.3,5.6C46.6,13.2,44.9,14,43.6,15z"/>
</g>
</svg>
