<?xml version="1.0" encoding="utf-8"?>
<!-- Generator: Adobe Illustrator 18.0.0, SVG Export Plug-In . SVG Version: 6.00 Build 0)  -->
<!DOCTYPE svg PUBLIC "-//W3C//DTD SVG 1.1//EN" "http://www.w3.org/Graphics/SVG/1.1/DTD/svg11.dtd">
<svg version="1.1" id="Layer_1" xmlns:sketch="http://www.bohemiancoding.com/sketch/ns"
	 xmlns="http://www.w3.org/2000/svg" xmlns:xlink="http://www.w3.org/1999/xlink" x="0px" y="0px" width="292px" height="52px"
	 viewBox="0 0 292 52" enable-background="new 0 0 292 52" xml:space="preserve">
<title>Social Media Buttons</title>
<desc>Created with Sketch Beta.</desc>
<path id="Mail" d="M278,33V18l-8.7,8.5L278,33z M254,33l8.7-6.5L254,18V33z M263.9,27.6L254,34h24l-9.9-6.4l-2.1,2L263.9,27.6z
	 M254.7,18l11.3,9.1l11.3-9.1H254.7z"/>
<path id="G_x2B_" d="M197.2,25.1v5.3H195v-5.3h-5.2v-2.2h5.2v-5.2h2.2v5.2h4c0.3,0.7,0.5,1.4,0.8,2.2H197.2z M170.7,40.3
	c2.9-1.8,6.8-2,9-2.2c-0.7-0.8-1.4-1.7-1.4-3.2c0-0.8,0.2-1.3,0.5-1.8c-0.5,0.1-1,0.1-1.5,0.1c-5,0-7.8-3.7-7.8-7.4
	c0-2.2,1-4.5,3-6.3c2.7-2.2,5.9-2.6,8.4-2.6h9.7l-3,1.7h-2.9c1.1,0.9,3.3,2.8,3.3,6.3c0,3.5-2,5.1-3.9,6.6c-0.6,0.6-1.3,1.3-1.3,2.3
	c0,1,0.7,1.6,1.2,2l1.7,1.3c2.1,1.7,3.9,3.3,3.9,6.5c0,2.1-1,4.3-2.9,5.9c-1,0.2-2.1,0.3-3.2,0.3c2-0.9,3-2.4,3-4.3
	c0-2.4-1.5-3.7-5.1-6.2c-0.4,0-0.6,0-1.1,0c-0.4,0-2.9,0.1-4.9,0.7c-1,0.4-4,1.5-4,4.8c0,0.4,0,0.7,0.1,1.1
	c-4.9-3.7-2.8-3.1-3.4-3.1C168.6,42,169.4,41,170.7,40.3z M177.9,18.5c-1.2,0-2.5,0.6-3.3,1.5c-0.8,1-1,2.2-1,3.5
	c0,3.1,1.8,8.3,5.9,8.3c1.2,0,2.4-0.6,3.2-1.3c1.1-1.1,1.2-2.6,1.2-3.4C183.8,23.8,181.8,18.5,177.9,18.5z"/>
<path id="Path_2_" d="M105.7,21.6l0,0.8l-0.8-0.1c-2.9-0.4-5.4-1.7-7.6-3.9l-1-1.1L96,18.1c-0.6,1.8-0.2,3.7,1,5
	c0.6,0.7,0.5,0.8-0.6,0.4c-0.4-0.1-0.7-0.2-0.7-0.2c-0.1,0.1,0.3,1.6,0.6,2.2c0.4,0.8,1.3,1.7,2.2,2.1l0.8,0.4l-0.9,0
	c-0.9,0-0.9,0-0.8,0.4c0.3,1.1,1.6,2.2,3,2.8l1,0.4l-0.9,0.5c-1.3,0.8-2.8,1.2-4.3,1.2c-0.7,0-1.3,0.1-1.3,0.1
	c0,0.2,1.9,1.1,3.1,1.5c3.4,1.1,7.4,0.6,10.4-1.2c2.1-1.3,4.3-4,5.3-6.5c0.5-1.4,1.1-3.8,1.1-5c0-0.8,0-0.9,0.9-1.8
	c0.5-0.5,1-1.1,1.1-1.3c0.2-0.3,0.1-0.3-0.7,0c-1.4,0.5-1.5,0.4-0.9-0.3c0.5-0.5,1.1-1.5,1.1-1.8c0-0.1-0.2,0-0.5,0.2
	c-0.3,0.2-0.9,0.4-1.4,0.6l-0.9,0.3l-0.8-0.6c-0.4-0.3-1-0.6-1.4-0.7c-0.8-0.2-2.1-0.2-2.8,0.1C106.8,17.5,105.5,19.4,105.7,21.6
	C105.7,21.6,105.5,19.4,105.7,21.6L105.7,21.6L105.7,21.6z"/>
<path d="M27.8,37V26h3.3l0.4-3.8h-3.7l0-1.9c0-1,0.1-1.5,1.6-1.5h2V15h-3.3c-3.9,0-5.3,1.8-5.3,4.9v2.3h-2.4V26h2.4v11H27.8L27.8,37
	L27.8,37L27.8,37z"/>
</svg>
